<svg id="visual" viewBox="0 0 1440 320" width="1440" height="320" xmlns="http://www.w3.org/2000/svg" xmlns:xlink="http://www.w3.org/1999/xlink" version="1.1"><g stroke-width="1" stroke-linejoin="bevel"><path d="M707 196L683 140L647 223Z" fill="#fdf6e8" stroke="#fdf6e8"></path><path d="M683 140L610 203L647 223Z" fill="#faf0d6" stroke="#faf0d6"></path><path d="M707 196L749 105L683 140Z" fill="#fbf3de" stroke="#fbf3de"></path><path d="M677 0L592 82L683 140Z" fill="#fcf4e1" stroke="#fcf4e1"></path><path d="M683 140L592 82L610 203Z" fill="#fdf6e8" stroke="#fdf6e8"></path><path d="M682 320L729 300L647 223Z" fill="#faeed1" stroke="#faeed1"></path><path d="M647 223L729 300L707 196Z" fill="#fcf4e1" stroke="#fcf4e1"></path><path d="M707 196L837 178L749 105Z" fill="#f9eccb" stroke="#f9eccb"></path><path d="M531 320L682 320L647 223Z" fill="#fdf6e8" stroke="#fdf6e8"></path><path d="M512 211L537 251L610 203Z" fill="#faeed1" stroke="#faeed1"></path><path d="M610 203L537 251L647 223Z" fill="#fbf2dc" stroke="#fbf2dc"></path><path d="M592 82L512 174L610 203Z" fill="#faeed1" stroke="#faeed1"></path><path d="M512 174L512 211L610 203Z" fill="#f9eac6" stroke="#f9eac6"></path><path d="M512 211L512 223L537 251Z" fill="#fdf6e8" stroke="#fdf6e8"></path><path d="M682 320L752 320L729 300Z" fill="#f8e8c0" stroke="#f8e8c0"></path><path d="M844 283L837 178L707 196Z" fill="#fbf3de" stroke="#fbf3de"></path><path d="M592 82L534 79L512 174Z" fill="#fbf2dc" stroke="#fbf2dc"></path><path d="M844 283L707 196L729 300Z" fill="#faf0d6" stroke="#faf0d6"></path><path d="M752 320L772 320L729 300Z" fill="#faf0d6" stroke="#faf0d6"></path><path d="M819 0L677 0L749 105Z" fill="#fbf3de" stroke="#fbf3de"></path><path d="M749 105L677 0L683 140Z" fill="#fbf2dc" stroke="#fbf2dc"></path><path d="M592 82L582 0L534 79Z" fill="#faf0d6" stroke="#faf0d6"></path><path d="M498 320L531 320L537 251Z" fill="#f9eac6" stroke="#f9eac6"></path><path d="M537 251L531 320L647 223Z" fill="#fdf5e6" stroke="#fdf5e6"></path><path d="M677 0L582 0L592 82Z" fill="#faf0d6" stroke="#faf0d6"></path><path d="M837 178L838 84L749 105Z" fill="#f9eccb" stroke="#f9eccb"></path><path d="M844 283L863 218L837 178Z" fill="#f9eac6" stroke="#f9eac6"></path><path d="M837 178L928 174L838 84Z" fill="#fbf2dc" stroke="#fbf2dc"></path><path d="M534 79L459 161L512 174Z" fill="#fdf5e6" stroke="#fdf5e6"></path><path d="M512 174L459 161L512 211Z" fill="#f9eac6" stroke="#f9eac6"></path><path d="M512 211L459 161L512 223Z" fill="#faeed1" stroke="#faeed1"></path><path d="M512 223L498 320L537 251Z" fill="#fcf4e1" stroke="#fcf4e1"></path><path d="M439 109L459 161L534 79Z" fill="#f9eccb" stroke="#f9eccb"></path><path d="M772 320L844 283L729 300Z" fill="#fcf4e1" stroke="#fcf4e1"></path><path d="M384 256L498 320L512 223Z" fill="#f8e8c0" stroke="#f8e8c0"></path><path d="M772 320L845 320L844 283Z" fill="#fbf2dc" stroke="#fbf2dc"></path><path d="M985 194L928 174L863 218Z" fill="#f8e8c0" stroke="#f8e8c0"></path><path d="M582 0L522 0L534 79Z" fill="#fbf3de" stroke="#fbf3de"></path><path d="M418 44L439 109L534 79Z" fill="#fcf4e1" stroke="#fcf4e1"></path><path d="M459 161L384 256L512 223Z" fill="#fdf6e8" stroke="#fdf6e8"></path><path d="M838 84L819 0L749 105Z" fill="#f9eccb" stroke="#f9eccb"></path><path d="M522 0L497 0L534 79Z" fill="#faeed1" stroke="#faeed1"></path><path d="M838 84L848 0L819 0Z" fill="#fbf2dc" stroke="#fbf2dc"></path><path d="M931 0L848 0L838 84Z" fill="#f9eccb" stroke="#f9eccb"></path><path d="M985 194L863 218L977 320Z" fill="#f9eac6" stroke="#f9eac6"></path><path d="M863 218L928 174L837 178Z" fill="#f8e8c0" stroke="#f8e8c0"></path><path d="M497 0L418 44L534 79Z" fill="#f9eac6" stroke="#f9eac6"></path><path d="M312 206L384 256L459 161Z" fill="#fbf3de" stroke="#fbf3de"></path><path d="M312 206L459 161L439 109Z" fill="#f9eac6" stroke="#f9eac6"></path><path d="M384 256L376 320L498 320Z" fill="#fdf5e6" stroke="#fdf5e6"></path><path d="M977 320L863 218L844 283Z" fill="#fdf6e8" stroke="#fdf6e8"></path><path d="M975 54L931 0L838 84Z" fill="#fcf4e1" stroke="#fcf4e1"></path><path d="M989 106L838 84L928 174Z" fill="#fcf4e1" stroke="#fcf4e1"></path><path d="M985 194L989 106L928 174Z" fill="#f8e8c0" stroke="#f8e8c0"></path><path d="M989 106L975 54L838 84Z" fill="#f8e8c0" stroke="#f8e8c0"></path><path d="M845 320L977 320L844 283Z" fill="#fdf6e8" stroke="#fdf6e8"></path><path d="M985 194L1010 177L989 106Z" fill="#fcf4e3" stroke="#fcf4e3"></path><path d="M989 106L1017 99L975 54Z" fill="#fbf3de" stroke="#fbf3de"></path><path d="M1055 320L1010 177L985 194Z" fill="#f9eccb" stroke="#f9eccb"></path><path d="M497 0L364 0L418 44Z" fill="#faf0d6" stroke="#faf0d6"></path><path d="M418 44L325 90L439 109Z" fill="#fdf5e6" stroke="#fdf5e6"></path><path d="M384 256L335 320L376 320Z" fill="#fcf4e3" stroke="#fcf4e3"></path><path d="M364 0L325 90L418 44Z" fill="#f9eac6" stroke="#f9eac6"></path><path d="M325 90L312 206L439 109Z" fill="#f9eccb" stroke="#f9eccb"></path><path d="M312 206L335 320L384 256Z" fill="#faf0d6" stroke="#faf0d6"></path><path d="M1010 177L1017 99L989 106Z" fill="#fdf5e6" stroke="#fdf5e6"></path><path d="M975 54L1063 0L931 0Z" fill="#fdf6e8" stroke="#fdf6e8"></path><path d="M277 157L281 168L325 90Z" fill="#faf0d6" stroke="#faf0d6"></path><path d="M325 90L281 168L312 206Z" fill="#f8e8c0" stroke="#f8e8c0"></path><path d="M312 206L294 320L335 320Z" fill="#fcf4e3" stroke="#fcf4e3"></path><path d="M211 34L277 157L325 90Z" fill="#fdf5e6" stroke="#fdf5e6"></path><path d="M209 249L294 320L312 206Z" fill="#fbf3de" stroke="#fbf3de"></path><path d="M209 213L312 206L281 168Z" fill="#fcf4e3" stroke="#fcf4e3"></path><path d="M1078 117L1017 99L1010 177Z" fill="#f9eac6" stroke="#f9eac6"></path><path d="M1078 117L1054 79L1017 99Z" fill="#fcf4e3" stroke="#fcf4e3"></path><path d="M1017 99L1054 79L975 54Z" fill="#fdf5e6" stroke="#fdf5e6"></path><path d="M364 0L301 0L325 90Z" fill="#f9eccb" stroke="#f9eccb"></path><path d="M977 320L1055 320L985 194Z" fill="#faf0d6" stroke="#faf0d6"></path><path d="M1159 187L1078 117L1010 177Z" fill="#f8e8c0" stroke="#f8e8c0"></path><path d="M301 0L284 0L325 90Z" fill="#f9eac6" stroke="#f9eac6"></path><path d="M1143 0L1063 0L1054 79Z" fill="#fbf3de" stroke="#fbf3de"></path><path d="M1054 79L1063 0L975 54Z" fill="#fbf2dc" stroke="#fbf2dc"></path><path d="M277 157L209 213L281 168Z" fill="#fdf6e8" stroke="#fdf6e8"></path><path d="M179 178L209 213L277 157Z" fill="#fcf4e3" stroke="#fcf4e3"></path><path d="M209 213L209 249L312 206Z" fill="#faeed1" stroke="#faeed1"></path><path d="M284 0L211 34L325 90Z" fill="#f8e8c0" stroke="#f8e8c0"></path><path d="M1055 320L1159 187L1010 177Z" fill="#faf0d6" stroke="#faf0d6"></path><path d="M1078 117L1150 87L1054 79Z" fill="#fcf4e3" stroke="#fcf4e3"></path><path d="M211 34L179 178L277 157Z" fill="#faf0d6" stroke="#faf0d6"></path><path d="M209 213L179 178L209 249Z" fill="#f8e8c0" stroke="#f8e8c0"></path><path d="M67 320L191 320L209 249Z" fill="#f8e8c0" stroke="#f8e8c0"></path><path d="M209 249L191 320L294 320Z" fill="#fbf2dc" stroke="#fbf2dc"></path><path d="M1121 320L1159 187L1055 320Z" fill="#fdf5e6" stroke="#fdf5e6"></path><path d="M1159 187L1150 87L1078 117Z" fill="#fdf6e8" stroke="#fdf6e8"></path><path d="M1183 0L1143 0L1150 87Z" fill="#f8e8c0" stroke="#f8e8c0"></path><path d="M1150 87L1143 0L1054 79Z" fill="#f9eac6" stroke="#f9eac6"></path><path d="M1159 187L1171 96L1150 87Z" fill="#f8e8c0" stroke="#f8e8c0"></path><path d="M1121 320L1171 320L1159 187Z" fill="#f9eccb" stroke="#f9eccb"></path><path d="M1159 187L1195 101L1171 96Z" fill="#fdf6e8" stroke="#fdf6e8"></path><path d="M1227 205L1195 101L1159 187Z" fill="#fcf4e3" stroke="#fcf4e3"></path><path d="M1171 96L1183 0L1150 87Z" fill="#fcf4e1" stroke="#fcf4e1"></path><path d="M1195 101L1183 0L1171 96Z" fill="#fbf2dc" stroke="#fbf2dc"></path><path d="M211 34L107 91L179 178Z" fill="#faeed1" stroke="#faeed1"></path><path d="M179 178L67 320L209 249Z" fill="#fbf2dc" stroke="#fbf2dc"></path><path d="M284 0L140 0L211 34Z" fill="#faf0d6" stroke="#faf0d6"></path><path d="M1227 258L1227 205L1159 187Z" fill="#fdf5e6" stroke="#fdf5e6"></path><path d="M1195 101L1245 0L1183 0Z" fill="#f9eccb" stroke="#f9eccb"></path><path d="M106 43L107 91L211 34Z" fill="#faeed1" stroke="#faeed1"></path><path d="M1171 320L1227 258L1159 187Z" fill="#faf0d6" stroke="#faf0d6"></path><path d="M106 43L98 101L107 91Z" fill="#f9eccb" stroke="#f9eccb"></path><path d="M107 91L98 101L179 178Z" fill="#f9eac6" stroke="#f9eac6"></path><path d="M140 0L106 43L211 34Z" fill="#faeed1" stroke="#faeed1"></path><path d="M140 0L104 0L106 43Z" fill="#fdf5e6" stroke="#fdf5e6"></path><path d="M0 170L25 223L98 101Z" fill="#fcf4e1" stroke="#fcf4e1"></path><path d="M1273 200L1195 101L1227 205Z" fill="#fdf6e8" stroke="#fdf6e8"></path><path d="M1319 83L1245 0L1195 101Z" fill="#fcf4e1" stroke="#fcf4e1"></path><path d="M1227 258L1273 200L1227 205Z" fill="#fdf5e6" stroke="#fdf5e6"></path><path d="M25 223L67 320L179 178Z" fill="#f8e8c0" stroke="#f8e8c0"></path><path d="M25 223L179 178L98 101Z" fill="#fdf6e8" stroke="#fdf6e8"></path><path d="M1171 320L1269 320L1227 258Z" fill="#fcf4e1" stroke="#fcf4e1"></path><path d="M1227 258L1334 283L1273 200Z" fill="#f9eac6" stroke="#f9eac6"></path><path d="M0 170L98 101L0 59Z" fill="#fcf4e1" stroke="#fcf4e1"></path><path d="M1269 320L1334 283L1227 258Z" fill="#f9eac6" stroke="#f9eac6"></path><path d="M1273 200L1319 83L1195 101Z" fill="#fbf3de" stroke="#fbf3de"></path><path d="M1342 102L1319 83L1273 200Z" fill="#f9eac6" stroke="#f9eac6"></path><path d="M0 59L98 101L106 43Z" fill="#faeed1" stroke="#faeed1"></path><path d="M25 223L0 320L67 320Z" fill="#fcf4e1" stroke="#fcf4e1"></path><path d="M0 170L0 209L25 223Z" fill="#fdf6e8" stroke="#fdf6e8"></path><path d="M0 0L0 59L106 43Z" fill="#faf0d6" stroke="#faf0d6"></path><path d="M1306 320L1334 283L1269 320Z" fill="#fbf3de" stroke="#fbf3de"></path><path d="M0 209L0 320L25 223Z" fill="#fdf5e6" stroke="#fdf5e6"></path><path d="M1334 283L1343 191L1273 200Z" fill="#fcf4e1" stroke="#fcf4e1"></path><path d="M1343 191L1342 102L1273 200Z" fill="#fbf3de" stroke="#fbf3de"></path><path d="M1319 83L1404 0L1245 0Z" fill="#fcf4e3" stroke="#fcf4e3"></path><path d="M104 0L0 0L106 43Z" fill="#f8e8c0" stroke="#f8e8c0"></path><path d="M1440 86L1404 0L1342 102Z" fill="#fcf4e3" stroke="#fcf4e3"></path><path d="M1342 102L1404 0L1319 83Z" fill="#fbf2dc" stroke="#fbf2dc"></path><path d="M1440 96L1342 102L1343 191Z" fill="#fdf5e6" stroke="#fdf5e6"></path><path d="M1440 320L1440 202L1334 283Z" fill="#f9eccb" stroke="#f9eccb"></path><path d="M1334 283L1440 202L1343 191Z" fill="#fbf2dc" stroke="#fbf2dc"></path><path d="M1440 202L1440 96L1343 191Z" fill="#fcf4e3" stroke="#fcf4e3"></path><path d="M1440 96L1440 86L1342 102Z" fill="#fcf4e1" stroke="#fcf4e1"></path><path d="M1306 320L1440 320L1334 283Z" fill="#faeed1" stroke="#faeed1"></path><path d="M1440 86L1440 0L1404 0Z" fill="#f9eccb" stroke="#f9eccb"></path></g></svg>